:SAMPLES-PER-SECOND 30
:FRAME-RANGE 1-663
:FULLY-SPECIFIED
:DEGREES
104
root  33.3624 39.2062 97.4926 0.169541 -47.3636 -0.171623
RightUpLeg  -3.96368 -6.45886 -2.33065
RightLeg  7.31715 -9.12271 0.944565
RightFoot  -2.61908 -0.248868 3.02769
RightToes  2.91037e-010 0 -3.6325e-017
Spine  5.07744 -0.415682 5.5108
Spine1  2.69105 0.193254 -1.68782
HEad  28.7989 -11.2159 -3.21114
LeftShoulder1  1.41062 -0.361361 -30.4364
LeftArm  6.72647 5.6747 -30.8079
LeftForeArm  7.83228 -6.21312 -16.3324
LeftHand  0.441111 -1.51401 -7.30234
RightShoulder  10.8647 16.1333 48.4146
RightArm  11.8483 8.67746 16.9779
RightForeArm  16.124 6.8192 15.1557
RightHand  0.309184 4.11714 3.49848
LeftUpLeg  -6.31017 5.95275 7.3638
LeftLeg  4.48909 -10.6268 -0.640208
LeftFoot  0.471797 1.05273 -10.1847
LeftToes  -4.9116e-011 5.71383e-011 -3.31847e-011
105
root  33.3389 39.2166 97.8794 0.936371 -47.7779 -0.918589
RightUpLeg  -3.46286 -6.09082 -2.13388
RightLeg  6.61567 -9.03614 0.879635
RightFoot  -2.51443 -0.289197 3.52286
RightToes  2.91037e-010 0 -3.6325e-017
Spine  4.74588 -0.355598 5.29032
Spine1  2.94266 0.178203 -1.44864
HEad  29.1516 -11.0715 -3.00818
LeftShoulder1  1.38895 -0.298214 -30.4723
LeftArm  7.10841 6.64516 -30.5331
LeftForeArm  7.03406 -6.76792 -16.1535
LeftHand  0.446495 -1.4332 -7.47341
RightShoulder  11.1245 16.5049 48.6496
RightArm  12.3019 9.29419 17.0226
RightForeArm  16.9354 6.35879 15.3718
RightHand  0.319654 4.24553 3.56902
LeftUpLeg  -6.3375 6.06232 7.38611
LeftLeg  4.33562 -10.3649 -0.544685
LeftFoot  1.49583 1.0389 -9.30193
LeftToes  -4.9116e-011 5.71383e-011 -3.31847e-011
106
root  33.3488 39.2522 98.2635 1.12497 -48.1517 -1.26511
RightUpLeg  -2.60377 -5.94145 -2.27747
RightLeg  5.71371 -8.78663 0.799019
RightFoot  -2.24217 -0.329655 3.94817
RightToes  2.91037e-010 0 -3.6325e-017
Spine  4.67803 -0.308005 4.54596
Spine1  3.22388 0.130439 -1.08995
HEad  29.5145 -11.0902 -2.65199
LeftShoulder1  1.38264 -0.27516 -30.5283
LeftArm  7.10781 7.09873 -30.3907
LeftForeArm  7.03679 -6.80186 -16.1449
LeftHand  0.445239 -1.50028 -7.38788
RightShoulder  11.3919 16.7735 49.1589
RightArm  10.7677 9.6571 17.0152
RightForeArm  18.8961 5.10621 15.6538
RightHand  0.316358 4.19448 3.55168
LeftUpLeg  -5.71158 6.0449 7.20372
LeftLeg  4.1752 -10.1078 -0.433315
LeftFoot  1.7129 0.952878 -8.40959
LeftToes  -4.9116e-011 5.71383e-011 -3.31847e-011
107
root  33.3595 39.2903 98.6514 1.10338 -48.57 -1.27315
RightUpLeg  -1.78792 -5.8882 -2.64942
RightLeg  4.79758 -8.36051 0.648812
RightFoot  -1.98959 -0.391907 4.62216
RightToes  2.91037e-010 0 -3.6325e-017
Spine  4.5447 -0.174164 3.75713
Spine1  3.34242 0.246522 -1.09391
HEad  29.9584 -11.2942 -2.10128
LeftShoulder1  1.38263 -0.300784 -30.2793
LeftArm  7.3501 7.17376 -30.3935
LeftForeArm  6.90054 -6.59951 -16.2611
LeftHand  0.442172 -1.40351 -7.45092
RightShoulder  11.4353 16.5264 49.9576
RightArm  9.20688 9.81663 17
RightForeArm  20.4875 3.645 15.9561
RightHand  0.302857 4.12529 3.41785
LeftUpLeg  -5.16418 6.11028 6.87676
LeftLeg  4.14307 -9.73413 -0.544426
LeftFoot  1.54932 0.891412 -7.96626
LeftToes  -4.9116e-011 5.71383e-011 -3.31847e-011
108
root  33.38 39.3092 99.0657 1.18805 -49.2232 -1.31877
RightUpLeg  -1.20711 -5.88174 -3.04487
RightLeg  4.1373 -7.63586 0.474661
RightFoot  -1.82921 -0.452454 5.28346
RightToes  2.91037e-010 0 -3.6325e-017
Spine  4.1492 0.00331943 3.34359
Spine1  3.52398 0.484393 -1.40429
HEad  30.3227 -11.3217 -1.90397
LeftShoulder1  1.37862 -0.293381 -30.2441
LeftArm  7.82128 7.20161 -30.1378
LeftForeArm  6.60429 -6.77506 -16.2328
LeftHand  0.460811 -1.49931 -7.6514
RightShoulder  11.4683 16.3278 50.6017
RightArm  7.44459 9.35214 17.2857
RightForeArm  21.6452 2.19776 16.1308
RightHand  0.309604 4.12005 3.50233
LeftUpLeg  -4.80582 6.77133 6.79455
LeftLeg  4.52185 -9.69166 -1.24364
LeftFoot  1.11838 0.800619 -7.39072
LeftToes  -4.9116e-011 5.71383e-011 -3.31847e-011
109
root  33.4246 39.3506 99.4825 1.23136 -50.1632 -1.22702
RightUpLeg  -0.579722 -5.74116 -3.48538
RightLeg  3.05302 -6.81448 0.214042
RightFoot  -1.40992 -0.524088 5.9151
RightToes  2.91037e-010 0 -3.6325e-017
Spine  3.82889 0.17581 2.99914
Spine1  3.48134 0.757684 -1.9545
HEad  30.5777 -10.9669 -1.96236
LeftShoulder1  1.36021 -0.216039 -30.5059
LeftArm  8.93185 7.37393 -29.6331
LeftForeArm  5.72508 -7.54148 -16.003
LeftHand  0.470751 -1.5681 -7.73445
RightShoulder  11.4524 16.1062 51.0986
RightArm  7.34118 8.6071 17.7581
RightForeArm  20.8904 1.41765 16.3545
RightHand  0.320839 4.08392 3.65561
LeftUpLeg  -4.09074 7.21417 6.52564
LeftLeg  4.10255 -9.01896 -1.67491
LeftFoot  0.885536 0.735835 -6.91605
LeftToes  -4.9116e-011 5.71383e-011 -3.31847e-011
110
root  33.4869 39.3983 99.8981 1.2242 -51.084 -1.06586
RightUpLeg  0.129475 -5.62433 -3.98372
RightLeg  1.6977 -6.07712 -0.0487861
RightFoot  -0.818787 -0.602688 6.4766
RightToes  2.91037e-010 0 -3.6325e-017
Spine  3.61401 0.249325 2.50655
Spine1  3.28705 0.894254 -2.40313
HEad  30.7371 -10.3819 -2.16961
LeftShoulder1  1.32962 -0.1099 -30.7342
LeftArm  10.0233 7.78802 -29.2638
LeftForeArm  4.72512 -8.61353 -15.5882
LeftHand  0.459601 -1.60208 -7.50832
RightShoulder  11.4165 15.7777 51.7965
RightArm  7.0104 7.83339 18.0661
RightForeArm  21.4371 0.578462 16.4622
RightHand  0.352233 4.10647 4.0284
LeftUpLeg  -3.24823 7.15116 6.00679
LeftLeg  3.25506 -8.00447 -1.69258
LeftFoot  0.769684 0.682931 -6.47852
LeftToes  -4.9116e-011 5.71383e-011 -3.31847e-011
